# xmcd
#
# Track frame offsets: 
#        150
#        17269
#        27231
#        37971
#        51805
#        67350
#        86119
#        101546
#        115721
#        126178
#        138227
#        152677
#        165074
#        178451
#        193955
#        202712
#        217049
#        237656
#        252561
#        262995
#        279807
#        291009
#        305511
#        316921
#
# Disc length: 4384 seconds
#
# Revision: 0
# Processed by: cddbd v1.5.1PL0 Copyright (c) Steve Scherf et al.
# Submitted via: ExactAudioCopy v0.95a5
#
DISCID=55111e18
DTITLE=Various Artist - Root Damage
DYEAR=2003
DGENRE=Blues
TTITLE0=R.L. Burnside - Georgia Women
TTITLE1=Billy Childish and Dan Melchior - Length Of Pipe
TTITLE2=South Filthy - Hot Dog
TTITLE3=Chris Wilson - Dark Haired Girl
TTITLE4=Soledad Brothers - Shakey Puddin'
TTITLE5=Compulsive Gamblers Featuring Jack Yarber - Rock 'N' Roll Nurs
TTITLE5=e
TTITLE6=Mr. Airplane Man - Sun Sinking Low
TTITLE7=Junkyard Dogs - Lightning Bar Blues
TTITLE8=T. Tex Edwards - You Ain't Never Gonna Live
TTITLE9=Elmore Williams - Hoopin' And Hollerin'
TTITLE10=Speedball Baby - Blackish Man
TTITLE11=Mark Spitz Freestyle - Three Shiny Nails
TTITLE12=Reigning Sound - As Long
TTITLE13=Kirby Grips - Needless
TTITLE14=Earl Lee Grace - Kitchen Girl
TTITLE15=The Cool Jerks - Man And A Woman
TTITLE16=Gun Club - Preaching The Blues
TTITLE17=Deadly Snakes - Love Undone
TTITLE18=Jack Oblivian - I'm Too Old For You
TTITLE19=Holly Golightly - Anyway You Like It
TTITLE20=The Blackhands - Black Girl
TTITLE21=Junior Kimbrough - You're Gonna Find Your Mistake
TTITLE22=Monsieur Jeffrey Evans - Otto Wood
TTITLE23=Cedell Davis - Keep On Snatchin' It Back
EXTD=
EXTT0=
EXTT1=
EXTT2=
EXTT3=
EXTT4=
EXTT5=
EXTT6=
EXTT7=
EXTT8=
EXTT9=
EXTT10=
EXTT11=
EXTT12=
EXTT13=
EXTT14=
EXTT15=
EXTT16=
EXTT17=
EXTT18=
EXTT19=
EXTT20=
EXTT21=
EXTT22=
EXTT23=
PLAYORDER=
